<?xml version="1.0" encoding="utf-8"?>
<!-- Generator: Adobe Illustrator 22.0.0, SVG Export Plug-In . SVG Version: 6.00 Build 0)  -->
<svg version="1.1" xmlns="http://www.w3.org/2000/svg" xmlns:xlink="http://www.w3.org/1999/xlink" x="0px" y="0px"
	 viewBox="0 0 256 256" style="enable-background:new 0 0 256 256;" xml:space="preserve">
<style type="text/css">
	.st0{display:none;}
	.st1{display:inline;}
	.st2{fill:none;stroke:#6B1D1D;stroke-width:0.5;stroke-miterlimit:10;}
	.st3{fill:#3A312A;}
	.st4{fill:#87796F;}
	.st5{fill:#D5DE58;}
	.st6{fill:#695B51;}
	.st7{fill:#FCE8CB;}
	.st8{fill:#F16C7A;}
	.st9{fill:#8AC6DD;}
	.st10{fill:#DECAAD;}
	.st11{fill:#D6DF58;}
	.st12{fill-rule:evenodd;clip-rule:evenodd;fill:#FCE8CB;}
	.st13{fill:#F5978A;}
	.st14{fill:#D7E057;}
	.st15{fill-rule:evenodd;clip-rule:evenodd;fill:#87796F;}
	.st16{fill:#6CA8BF;}
	.st17{fill:#B9C239;}
	.st18{fill:#D34E5C;}
	.st19{fill:#FAE6CA;}
	.st20{fill:#F8E4C8;}
	.st21{fill:#8AC5DC;}
	.st22{fill:#EF6D7A;}
	.st23{fill:#EB6E7A;}
	.st24{fill:#89C4DB;}
	.st25{fill-rule:evenodd;clip-rule:evenodd;fill:#F16C7A;}
	.st26{fill:#F7E3C7;}
	.st27{fill:#F6E2C6;}
	.st28{fill:#ED6E7A;}
	.st29{fill:#8AC3DA;}
	.st30{fill:#D5DC57;}
	.st31{fill-rule:evenodd;clip-rule:evenodd;fill:#D7E057;}
	.st32{fill-rule:evenodd;clip-rule:evenodd;fill:#F8E4C8;}
	.st33{fill:#D4DB56;}
	.st34{fill:#F59689;}
	.st35{fill:#DDC9AC;}
	.st36{fill:#D24E5C;}
	.st37{fill:#6A5C52;}
	.st38{fill:#6CA6BE;}
	.st39{fill:#B8C136;}
	.st40{fill-rule:evenodd;clip-rule:evenodd;fill:#FAE6CA;}
</style>
<g id="Layer_2" class="st0">
	<g class="st1">
		<g>
			<line class="st2" x1="0" y1="4.829" x2="256" y2="4.829"/>
			<line class="st2" x1="0" y1="16.56" x2="256" y2="16.56"/>
			<line class="st2" x1="0" y1="28.29" x2="256" y2="28.29"/>
			<line class="st2" x1="0" y1="40.021" x2="256" y2="40.021"/>
			<line class="st2" x1="0" y1="51.751" x2="256" y2="51.751"/>
			<line class="st2" x1="0" y1="63.482" x2="256" y2="63.482"/>
			<line class="st2" x1="0" y1="75.213" x2="256" y2="75.213"/>
			<line class="st2" x1="0" y1="86.943" x2="256" y2="86.943"/>
			<line class="st2" x1="0" y1="98.674" x2="256" y2="98.674"/>
			<line class="st2" x1="0" y1="110.404" x2="256" y2="110.404"/>
			<line class="st2" x1="0" y1="122.135" x2="256" y2="122.135"/>
			<line class="st2" x1="0" y1="133.865" x2="256" y2="133.865"/>
			<line class="st2" x1="0" y1="145.596" x2="256" y2="145.596"/>
			<line class="st2" x1="0" y1="157.326" x2="256" y2="157.326"/>
			<line class="st2" x1="0" y1="169.057" x2="256" y2="169.057"/>
			<line class="st2" x1="0" y1="180.788" x2="256" y2="180.788"/>
			<line class="st2" x1="0" y1="192.518" x2="256" y2="192.518"/>
			<line class="st2" x1="0" y1="204.249" x2="256" y2="204.249"/>
			<line class="st2" x1="0" y1="215.979" x2="256" y2="215.979"/>
			<line class="st2" x1="0" y1="227.71" x2="256" y2="227.71"/>
			<line class="st2" x1="0" y1="239.44" x2="256" y2="239.44"/>
			<line class="st2" x1="0" y1="251.171" x2="256" y2="251.171"/>
		</g>
		<g>
			<line class="st2" x1="251.171" y1="0" x2="251.171" y2="256"/>
			<line class="st2" x1="239.44" y1="0" x2="239.44" y2="256"/>
			<line class="st2" x1="227.71" y1="0" x2="227.71" y2="256"/>
			<line class="st2" x1="215.979" y1="0" x2="215.979" y2="256"/>
			<line class="st2" x1="204.249" y1="0" x2="204.249" y2="256"/>
			<line class="st2" x1="192.518" y1="0" x2="192.518" y2="256"/>
			<line class="st2" x1="180.788" y1="0" x2="180.788" y2="256"/>
			<line class="st2" x1="169.057" y1="0" x2="169.057" y2="256"/>
			<line class="st2" x1="157.326" y1="0" x2="157.326" y2="256"/>
			<line class="st2" x1="145.596" y1="0" x2="145.596" y2="256"/>
			<line class="st2" x1="133.865" y1="0" x2="133.865" y2="256"/>
			<line class="st2" x1="122.135" y1="0" x2="122.135" y2="256"/>
			<line class="st2" x1="110.404" y1="0" x2="110.404" y2="256"/>
			<line class="st2" x1="98.674" y1="0" x2="98.674" y2="256"/>
			<line class="st2" x1="86.943" y1="0" x2="86.943" y2="256"/>
			<line class="st2" x1="75.213" y1="0" x2="75.213" y2="256"/>
			<line class="st2" x1="63.482" y1="0" x2="63.482" y2="256"/>
			<line class="st2" x1="51.751" y1="0" x2="51.751" y2="256"/>
			<line class="st2" x1="40.021" y1="0" x2="40.021" y2="256"/>
			<line class="st2" x1="28.29" y1="0" x2="28.29" y2="256"/>
			<line class="st2" x1="16.56" y1="0" x2="16.56" y2="256"/>
			<line class="st2" x1="4.829" y1="0" x2="4.829" y2="256"/>
		</g>
	</g>
</g>
<g id="Layer_1">
	<g>
		<path class="st14" d="M48.139,26.421c0,0,3.408,12.659,13.222,13.246c0,0-13.1,4.525-13.321,14.202
			c0,0-2.578-13.572-12.925-14.059C35.114,39.81,47.165,37.985,48.139,26.421z"/>
		<path class="st3" d="M48.038,55.369c-0.713,0-1.335-0.506-1.473-1.217c-0.023-0.124-2.494-12.417-11.521-12.842
			c-0.771-0.037-1.388-0.651-1.428-1.421c-0.04-0.771,0.511-1.445,1.273-1.561c0.442-0.069,10.895-1.817,11.754-12.033
			c0.062-0.725,0.635-1.301,1.359-1.367c0.734-0.059,1.394,0.399,1.584,1.102c0.031,0.116,3.259,11.626,11.863,12.141
			c0.714,0.043,1.298,0.584,1.396,1.292c0.098,0.708-0.318,1.388-0.994,1.623c-0.121,0.042-12.118,4.31-12.312,12.819
			c-0.018,0.767-0.611,1.396-1.375,1.459C48.122,55.367,48.08,55.369,48.038,55.369z M40.298,39.639
			c3.878,1.969,6.229,5.746,7.586,8.876c2.026-4.021,5.942-6.787,8.949-8.427c-4.134-1.842-6.783-5.651-8.334-8.722
			C46.706,35.727,43.229,38.234,40.298,39.639z"/>
		<path class="st14" d="M26.44,43.401c0,0,2.411,8.954,9.352,9.369c0,0-9.266,3.201-9.422,10.045c0,0-1.824-9.6-9.142-9.944
			C17.228,52.872,25.751,51.581,26.44,43.401z"/>
		<path class="st3" d="M26.369,64.316c-0.714,0-1.337-0.507-1.473-1.22c-0.016-0.082-1.704-8.442-7.739-8.726
			c-0.771-0.037-1.388-0.651-1.428-1.421c-0.04-0.771,0.511-1.445,1.273-1.561c0.296-0.047,7.363-1.243,7.942-8.114
			c0.062-0.726,0.636-1.303,1.361-1.368c0.723-0.062,1.392,0.399,1.582,1.102l0,0c0.021,0.079,2.226,7.92,7.993,8.265
			c0.714,0.043,1.299,0.584,1.396,1.293c0.097,0.709-0.32,1.388-0.996,1.622C36.201,54.217,28,57.141,27.87,62.85
			c-0.018,0.767-0.611,1.398-1.376,1.461C26.452,64.315,26.41,64.316,26.369,64.316z M21.85,52.789
			c2.107,1.333,3.523,3.394,4.447,5.28c1.376-2.232,3.516-3.872,5.365-4.972c-2.287-1.27-3.885-3.35-4.941-5.224
			C25.547,50.159,23.705,51.748,21.85,52.789z"/>
		<path class="st14" d="M26.44,16.744c0,0,2.411,8.954,9.352,9.37c0,0-9.266,3.201-9.422,10.045c0,0-1.824-9.6-9.142-9.944
			C17.228,26.215,25.751,24.923,26.44,16.744z"/>
		<path class="st3" d="M26.369,37.659c-0.714,0-1.337-0.507-1.473-1.22c-0.016-0.082-1.704-8.442-7.739-8.726
			c-0.771-0.037-1.388-0.651-1.428-1.421c-0.04-0.77,0.511-1.445,1.273-1.561c0.296-0.047,7.363-1.243,7.942-8.114
			c0.062-0.726,0.636-1.303,1.361-1.368c0.723-0.06,1.392,0.399,1.582,1.102l0,0c0.021,0.079,2.226,7.92,7.993,8.265
			c0.714,0.043,1.299,0.584,1.396,1.293c0.097,0.709-0.32,1.388-0.996,1.622c-0.081,0.028-8.282,2.953-8.412,8.662
			c-0.018,0.767-0.611,1.397-1.376,1.461C26.452,37.657,26.41,37.659,26.369,37.659z M21.85,26.131
			c2.107,1.333,3.523,3.394,4.447,5.28c1.376-2.232,3.516-3.872,5.365-4.973c-2.288-1.269-3.885-3.35-4.941-5.224
			C25.547,23.502,23.705,25.09,21.85,26.131z"/>
		<path class="st9" d="M95.982,26.918C80.556,37.253,70.398,54.84,70.398,74.803c0,0.438,0.023,0.87,0.033,1.305
			c-3.089-0.694-6.297-1.072-9.595-1.072c-24.085,0-43.609,19.525-43.609,43.609s19.525,43.609,43.609,43.609
			c1.02,0,2.029-0.048,3.032-0.117v0.117h124.065v-0.018c28.14-0.376,50.839-23.291,50.839-51.521
			c0-28.464-23.075-51.538-51.538-51.538c-1.263,0-2.512,0.061-3.752,0.151C176.72,35.035,154.45,17.201,128,17.201
			c-7.216,0-14.116,1.339-20.481,3.762L95.982,26.918z"/>
		<path class="st3" d="M187.934,163.755H63.869c-0.172,0-0.337-0.029-0.491-0.082c-0.938,0.056-1.758,0.082-2.541,0.082
			c-24.873,0-45.109-20.236-45.109-45.109c0-24.874,20.236-45.109,45.109-45.109c2.687,0,5.391,0.246,8.063,0.731
			c0.176-19.548,9.959-37.682,26.247-48.595c0.688-0.462,1.62-0.277,2.081,0.411c0.461,0.688,0.277,1.62-0.411,2.081
			C81.214,38.619,71.898,56.053,71.898,74.803c0,0.259,0.009,0.516,0.018,0.773l0.016,0.498c0.01,0.461-0.192,0.902-0.55,1.194
			c-0.356,0.292-0.826,0.403-1.279,0.303c-3.058-0.687-6.176-1.035-9.266-1.035c-23.219,0-42.109,18.89-42.109,42.109
			s18.891,42.109,42.109,42.109c0.874,0,1.805-0.036,2.93-0.113c0.232-0.019,0.469,0.024,0.683,0.113h123.254
			c0.068-0.011,0.139-0.017,0.21-0.018c27.217-0.363,49.359-22.803,49.359-50.021c0-27.591-22.447-50.038-50.038-50.038
			c-1.099,0-2.257,0.046-3.645,0.146c-0.706,0.05-1.361-0.406-1.553-1.094c-6.725-24.158-28.945-41.03-54.037-41.03
			c-6.85,0-13.562,1.232-19.947,3.663c-0.768,0.295-1.64-0.093-1.935-0.868c-0.294-0.774,0.095-1.641,0.869-1.936
			C113.714,17,120.784,15.701,128,15.701c26.025,0,49.12,17.232,56.588,42.054c0.953-0.052,1.813-0.077,2.646-0.077
			c29.245,0,53.038,23.793,53.038,53.038c0,28.772-23.344,52.507-52.086,53.017C188.105,163.748,188.02,163.755,187.934,163.755z"/>
		<path class="st19" d="M208.801,131.288c-25.794-10.685-54.777-10.685-80.572,0c0,35.989,0,71.979,0,107.968
			c25.795-10.684,54.777-10.684,80.572,0C208.801,203.267,208.801,167.278,208.801,131.288z"/>
		<path class="st3" d="M208.801,240.756c-0.194,0-0.39-0.038-0.574-0.114c-25.607-10.607-53.816-10.607-79.424,0
			c-0.462,0.192-0.99,0.141-1.407-0.139c-0.417-0.278-0.667-0.746-0.667-1.247V131.288c0-0.607,0.365-1.154,0.926-1.386
			c26.35-10.914,55.371-10.914,81.721,0c0.561,0.232,0.926,0.779,0.926,1.386v107.968c0,0.501-0.25,0.969-0.667,1.247
			C209.384,240.671,209.093,240.756,208.801,240.756z M168.515,229.685c13.118,0,26.237,2.451,38.786,7.351V132.295
			c-25.053-10.103-52.52-10.103-77.572,0v104.741C142.277,232.136,155.396,229.685,168.515,229.685z"/>
		<path class="st19" d="M47.654,191.496v47.76c25.795-10.684,54.778-10.684,80.572,0V131.288c-25.795-10.685-54.777-10.685-80.572,0
			v46.951V191.496z"/>
		<path class="st3" d="M128.227,240.756c-0.194,0-0.39-0.038-0.574-0.114c-25.607-10.607-53.816-10.607-79.424,0
			c-0.461,0.192-0.99,0.141-1.407-0.139c-0.417-0.278-0.667-0.746-0.667-1.247v-47.761c0-0.829,0.672-1.5,1.5-1.5
			c0.828,0,1.5,0.671,1.5,1.5v45.54c25.098-9.801,52.475-9.801,77.572,0V132.295c-25.053-10.103-52.52-10.103-77.572,0v45.944
			c0,0.829-0.672,1.5-1.5,1.5c-0.828,0-1.5-0.671-1.5-1.5v-46.952c0-0.607,0.365-1.154,0.926-1.386
			c26.35-10.914,55.371-10.914,81.721,0c0.561,0.232,0.926,0.779,0.926,1.386v107.968c0,0.501-0.25,0.969-0.667,1.247
			C128.81,240.671,128.519,240.756,128.227,240.756z"/>
		<path class="st3" d="M56.94,220.421c-0.642,0-1.234-0.414-1.434-1.058c-0.244-0.792,0.2-1.631,0.991-1.876
			c20.566-6.346,42.312-6.344,62.885,0c0.791,0.244,1.235,1.084,0.991,1.875c-0.244,0.792-1.083,1.236-1.876,0.992
			c-19.996-6.167-41.129-6.168-61.115-0.001C57.235,220.399,57.086,220.421,56.94,220.421z"/>
		<path class="st3" d="M137.939,220.281c-0.643,0-1.237-0.417-1.435-1.064c-0.24-0.792,0.207-1.63,1-1.871
			c20.228-6.146,41.622-6.158,61.869-0.041c0.793,0.24,1.242,1.077,1.002,1.87c-0.239,0.793-1.08,1.24-1.869,1.002
			c-19.679-5.947-40.47-5.934-60.131,0.039C138.231,220.26,138.084,220.281,137.939,220.281z"/>
		<path class="st3" d="M56.94,205.421c-0.642,0-1.234-0.414-1.434-1.058c-0.244-0.792,0.2-1.631,0.991-1.876
			c20.566-6.346,42.312-6.345,62.885,0c0.791,0.244,1.235,1.084,0.991,1.875c-0.244,0.792-1.083,1.236-1.876,0.992
			c-19.996-6.167-41.129-6.168-61.115-0.001C57.235,205.399,57.086,205.421,56.94,205.421z"/>
		<path class="st3" d="M137.939,205.281c-0.643,0-1.237-0.417-1.435-1.064c-0.24-0.792,0.207-1.63,1-1.871
			c20.228-6.146,41.622-6.158,61.869-0.041c0.793,0.24,1.242,1.077,1.002,1.87c-0.239,0.793-1.08,1.239-1.869,1.002
			c-19.679-5.946-40.47-5.934-60.131,0.039C138.231,205.26,138.084,205.281,137.939,205.281z"/>
		<path class="st3" d="M56.94,190.421c-0.642,0-1.234-0.414-1.434-1.058c-0.244-0.792,0.2-1.631,0.991-1.876
			c20.566-6.346,42.312-6.344,62.885,0c0.791,0.244,1.235,1.084,0.991,1.875c-0.244,0.792-1.083,1.237-1.876,0.992
			c-19.996-6.167-41.129-6.168-61.115-0.001C57.235,190.399,57.086,190.421,56.94,190.421z"/>
		<path class="st3" d="M137.939,190.281c-0.643,0-1.237-0.417-1.435-1.064c-0.24-0.792,0.207-1.63,1-1.871
			c20.228-6.146,41.622-6.158,61.869-0.041c0.793,0.24,1.242,1.077,1.002,1.87c-0.239,0.793-1.08,1.239-1.869,1.002
			c-19.679-5.946-40.47-5.934-60.131,0.039C138.231,190.26,138.084,190.281,137.939,190.281z"/>
		<path class="st3" d="M56.94,175.421c-0.642,0-1.234-0.414-1.434-1.058c-0.244-0.792,0.2-1.631,0.991-1.876
			c20.566-6.346,42.312-6.345,62.885,0c0.791,0.244,1.235,1.084,0.991,1.875c-0.244,0.792-1.083,1.236-1.876,0.992
			c-19.996-6.167-41.129-6.168-61.115-0.001C57.235,175.399,57.086,175.421,56.94,175.421z"/>
		<path class="st3" d="M137.939,175.281c-0.643,0-1.237-0.417-1.435-1.064c-0.24-0.792,0.207-1.63,1-1.871
			c20.228-6.146,41.622-6.158,61.869-0.04c0.793,0.24,1.242,1.077,1.002,1.87c-0.239,0.794-1.08,1.24-1.869,1.002
			c-19.679-5.947-40.47-5.934-60.131,0.039C138.231,175.26,138.084,175.281,137.939,175.281z"/>
		<path class="st3" d="M56.94,160.421c-0.642,0-1.234-0.414-1.434-1.058c-0.244-0.792,0.2-1.631,0.991-1.876
			c20.566-6.346,42.312-6.345,62.885,0c0.791,0.244,1.235,1.084,0.991,1.875c-0.244,0.792-1.083,1.236-1.876,0.992
			c-19.996-6.167-41.129-6.168-61.115-0.001C57.235,160.399,57.086,160.421,56.94,160.421z"/>
		<path class="st3" d="M137.939,160.281c-0.643,0-1.237-0.417-1.435-1.064c-0.24-0.792,0.207-1.63,1-1.871
			c20.228-6.146,41.622-6.158,61.869-0.04c0.793,0.24,1.242,1.077,1.002,1.87c-0.239,0.793-1.08,1.24-1.869,1.002
			c-19.679-5.947-40.47-5.934-60.131,0.039C138.231,160.26,138.084,160.281,137.939,160.281z"/>
		<path class="st3" d="M56.94,145.421c-0.642,0-1.234-0.414-1.434-1.058c-0.244-0.792,0.2-1.631,0.991-1.876
			c20.566-6.346,42.312-6.345,62.885,0c0.791,0.244,1.235,1.084,0.991,1.875c-0.244,0.792-1.083,1.236-1.876,0.992
			c-19.996-6.167-41.129-6.168-61.115-0.001C57.235,145.399,57.086,145.421,56.94,145.421z"/>
		<path class="st3" d="M137.939,145.281c-0.643,0-1.237-0.417-1.435-1.064c-0.24-0.792,0.207-1.63,1-1.871
			c20.228-6.146,41.622-6.158,61.869-0.04c0.793,0.24,1.242,1.077,1.002,1.87c-0.239,0.793-1.08,1.24-1.869,1.002
			c-19.679-5.946-40.47-5.934-60.131,0.039C138.231,145.26,138.084,145.281,137.939,145.281z"/>
		<path class="st16" d="M237.268,110.721c0,19.16-10.98,35.94-26.97,44.33v-12c7.46-8.74,11.97-20.05,11.97-32.33
			c0-27.6-22.44-50.04-50.03-50.04c-1.1,0-2.26,0.04-3.65,0.14c-0.7,0.06-1.36-0.4-1.55-1.09c-6.05-21.73-24.64-37.56-46.57-40.52
			c2.46-0.34,4.98-0.51,7.53-0.51c25.09,0,47.31,16.87,54.04,41.03c0.19,0.69,0.85,1.15,1.55,1.09c1.39-0.1,2.55-0.14,3.65-0.14
			C214.828,60.681,237.268,83.121,237.268,110.721z"/>
	</g>
</g>
</svg>
